<svg xmlns="http://www.w3.org/2000/svg" width="980" height="420" viewBox="0 0 980 420">
<rect width="100%" height="100%" fill="white"/>
<text x="490.0" y="30" font-size="18" font-family="Arial" text-anchor="middle" font-weight="bold">TCGA-only model metric comparison</text>
<line x1="80" y1="330.0" x2="940" y2="330.0" stroke="#ddd"/>
<text x="70" y="334.0" font-size="11" font-family="Arial" text-anchor="end" font-weight="normal">0.0</text>
<line x1="80" y1="278.0" x2="940" y2="278.0" stroke="#ddd"/>
<text x="70" y="282.0" font-size="11" font-family="Arial" text-anchor="end" font-weight="normal">0.2</text>
<line x1="80" y1="226.0" x2="940" y2="226.0" stroke="#ddd"/>
<text x="70" y="230.0" font-size="11" font-family="Arial" text-anchor="end" font-weight="normal">0.4</text>
<line x1="80" y1="173.99999999999997" x2="940" y2="173.99999999999997" stroke="#ddd"/>
<text x="70" y="177.99999999999997" font-size="11" font-family="Arial" text-anchor="end" font-weight="normal">0.6</text>
<line x1="80" y1="122.0" x2="940" y2="122.0" stroke="#ddd"/>
<text x="70" y="126.0" font-size="11" font-family="Arial" text-anchor="end" font-weight="normal">0.8</text>
<line x1="80" y1="70.0" x2="940" y2="70.0" stroke="#ddd"/>
<text x="70" y="74.0" font-size="11" font-family="Arial" text-anchor="end" font-weight="normal">1.0</text>
<rect x="100" y="85.14563106796115" width="28" height="244.85436893203885" fill="#4C78A8"/>
<rect x="132" y="78.21052631578948" width="28" height="251.78947368421052" fill="#F58518"/>
<rect x="164" y="70.0" width="28" height="260.0" fill="#54A24B"/>
<rect x="196" y="86.42105263157893" width="28" height="243.57894736842107" fill="#E45756"/>
<rect x="228" y="70.0" width="28" height="260.0" fill="#72B7B2"/>
<rect x="260" y="69.99999999999994" width="28" height="260.00000000000006" fill="#B279A2"/>
<text x="192" y="362" font-size="12" font-family="Arial" text-anchor="middle" font-weight="normal">logistic_regression</text>
<rect x="360" y="70.0" width="28" height="260.0" fill="#4C78A8"/>
<rect x="392" y="70.0" width="28" height="260.0" fill="#F58518"/>
<rect x="424" y="70.0" width="28" height="260.0" fill="#54A24B"/>
<rect x="456" y="70.0" width="28" height="260.0" fill="#E45756"/>
<rect x="488" y="70.0" width="28" height="260.0" fill="#72B7B2"/>
<rect x="520" y="70.0" width="28" height="260.0" fill="#B279A2"/>
<text x="452" y="362" font-size="12" font-family="Arial" text-anchor="middle" font-weight="normal">random_forest</text>
<rect x="620" y="85.14563106796115" width="28" height="244.85436893203885" fill="#4C78A8"/>
<rect x="652" y="78.21052631578948" width="28" height="251.78947368421052" fill="#F58518"/>
<rect x="684" y="70.0" width="28" height="260.0" fill="#54A24B"/>
<rect x="716" y="86.42105263157893" width="28" height="243.57894736842107" fill="#E45756"/>
<rect x="748" y="70.0" width="28" height="260.0" fill="#72B7B2"/>
<rect x="780" y="69.99999999999994" width="28" height="260.00000000000006" fill="#B279A2"/>
<text x="712" y="362" font-size="12" font-family="Arial" text-anchor="middle" font-weight="normal">linear_svm</text>
<rect x="80" y="363" width="14" height="14" fill="#4C78A8"/>
<text x="100" y="375" font-size="11" font-family="Arial" text-anchor="start" font-weight="normal">accuracy</text>
<rect x="225" y="363" width="14" height="14" fill="#F58518"/>
<text x="245" y="375" font-size="11" font-family="Arial" text-anchor="start" font-weight="normal">balanced_accuracy</text>
<rect x="370" y="363" width="14" height="14" fill="#54A24B"/>
<text x="390" y="375" font-size="11" font-family="Arial" text-anchor="start" font-weight="normal">normal_recall</text>
<rect x="515" y="363" width="14" height="14" fill="#E45756"/>
<text x="535" y="375" font-size="11" font-family="Arial" text-anchor="start" font-weight="normal">tumor_recall</text>
<rect x="660" y="363" width="14" height="14" fill="#72B7B2"/>
<text x="680" y="375" font-size="11" font-family="Arial" text-anchor="start" font-weight="normal">roc_auc</text>
<rect x="805" y="363" width="14" height="14" fill="#B279A2"/>
<text x="825" y="375" font-size="11" font-family="Arial" text-anchor="start" font-weight="normal">pr_auc</text>
</svg>