<svg xmlns="http://www.w3.org/2000/svg" width="980" height="420" viewBox="0 0 980 420">
<rect width="100%" height="100%" fill="white"/>
<text x="250.0" y="35" font-size="17" font-family="Arial" text-anchor="middle" font-weight="bold">ROC Curve</text>
<rect x="70" y="70" width="360" height="260" fill="none" stroke="#333"/>
<line x1="70.0" y1="70" x2="70.0" y2="330" stroke="#eee"/>
<line x1="70" y1="330.0" x2="430" y2="330.0" stroke="#eee"/>
<line x1="142.0" y1="70" x2="142.0" y2="330" stroke="#eee"/>
<line x1="70" y1="278.0" x2="430" y2="278.0" stroke="#eee"/>
<line x1="214.0" y1="70" x2="214.0" y2="330" stroke="#eee"/>
<line x1="70" y1="226.0" x2="430" y2="226.0" stroke="#eee"/>
<line x1="286.0" y1="70" x2="286.0" y2="330" stroke="#eee"/>
<line x1="70" y1="173.99999999999997" x2="430" y2="173.99999999999997" stroke="#eee"/>
<line x1="358.0" y1="70" x2="358.0" y2="330" stroke="#eee"/>
<line x1="70" y1="122.0" x2="430" y2="122.0" stroke="#eee"/>
<line x1="430.0" y1="70" x2="430.0" y2="330" stroke="#eee"/>
<line x1="70" y1="70.0" x2="430" y2="70.0" stroke="#eee"/>
<polyline fill="none" stroke="#4C78A8" stroke-width="2" points="70.0,330.0 70.0,327.3 70.0,70.0 430.0,70.0"/>
<polyline fill="none" stroke="#F58518" stroke-width="2" points="70.0,330.0 70.0,231.5 70.0,179.5 70.0,119.3 70.0,111.1 70.0,108.3 70.0,102.8 70.0,94.6 70.0,91.9 70.0,86.4 70.0,78.2 70.0,70.0 430.0,70.0"/>
<polyline fill="none" stroke="#54A24B" stroke-width="2" points="70.0,330.0 70.0,327.3 70.0,70.0 430.0,70.0"/>
<text x="250.0" y="370" font-size="12" font-family="Arial" text-anchor="middle" font-weight="normal">False Positive Rate</text>
<text x="28" y="200.0" font-size="12" font-family="Arial" text-anchor="middle" font-weight="normal">True Positive Rate</text>
<text x="720.0" y="35" font-size="17" font-family="Arial" text-anchor="middle" font-weight="bold">Precision-Recall Curve</text>
<rect x="540" y="70" width="360" height="260" fill="none" stroke="#333"/>
<line x1="540.0" y1="70" x2="540.0" y2="330" stroke="#eee"/>
<line x1="540" y1="330.0" x2="900" y2="330.0" stroke="#eee"/>
<line x1="612.0" y1="70" x2="612.0" y2="330" stroke="#eee"/>
<line x1="540" y1="278.0" x2="900" y2="278.0" stroke="#eee"/>
<line x1="684.0" y1="70" x2="684.0" y2="330" stroke="#eee"/>
<line x1="540" y1="226.0" x2="900" y2="226.0" stroke="#eee"/>
<line x1="756.0" y1="70" x2="756.0" y2="330" stroke="#eee"/>
<line x1="540" y1="173.99999999999997" x2="900" y2="173.99999999999997" stroke="#eee"/>
<line x1="828.0" y1="70" x2="828.0" y2="330" stroke="#eee"/>
<line x1="540" y1="122.0" x2="900" y2="122.0" stroke="#eee"/>
<line x1="900.0" y1="70" x2="900.0" y2="330" stroke="#eee"/>
<line x1="540" y1="70.0" x2="900" y2="70.0" stroke="#eee"/>
<polyline fill="none" stroke="#4C78A8" stroke-width="2" points="900.0,90.2 900.0,87.8 900.0,85.4 900.0,83.0 900.0,80.5 900.0,78.0 900.0,75.4 900.0,72.7 900.0,70.0 896.2,70.0 892.4,70.0 888.6,70.0 884.8,70.0 881.1,70.0 877.3,70.0 873.5,70.0 869.7,70.0 865.9,70.0 862.1,70.0 858.3,70.0 854.5,70.0 850.7,70.0 846.9,70.0 843.2,70.0 839.4,70.0 835.6,70.0 831.8,70.0 828.0,70.0 824.2,70.0 820.4,70.0 816.6,70.0 812.8,70.0 809.1,70.0 805.3,70.0 801.5,70.0 797.7,70.0 793.9,70.0 790.1,70.0 786.3,70.0 782.5,70.0 778.7,70.0 774.9,70.0 771.2,70.0 767.4,70.0 763.6,70.0 759.8,70.0 756.0,70.0 752.2,70.0 748.4,70.0 744.6,70.0 740.8,70.0 737.1,70.0 733.3,70.0 729.5,70.0 725.7,70.0 721.9,70.0 718.1,70.0 714.3,70.0 710.5,70.0 706.7,70.0 702.9,70.0 699.2,70.0 695.4,70.0 691.6,70.0 687.8,70.0 684.0,70.0 680.2,70.0 676.4,70.0 672.6,70.0 668.8,70.0 665.1,70.0 661.3,70.0 657.5,70.0 653.7,70.0 649.9,70.0 646.1,70.0 642.3,70.0 638.5,70.0 634.7,70.0 630.9,70.0 627.2,70.0 623.4,70.0 619.6,70.0 615.8,70.0 612.0,70.0 608.2,70.0 604.4,70.0 600.6,70.0 596.8,70.0 593.1,70.0 589.3,70.0 585.5,70.0 581.7,70.0 577.9,70.0 574.1,70.0 570.3,70.0 566.5,70.0 562.7,70.0 558.9,70.0 555.2,70.0 551.4,70.0 547.6,70.0 543.8,70.0 540.0,70.0"/>
<polyline fill="none" stroke="#F58518" stroke-width="2" points="900.0,90.2 900.0,87.8 900.0,85.4 900.0,83.0 900.0,80.5 900.0,78.0 900.0,75.4 900.0,72.7 900.0,70.0 896.2,70.0 892.4,70.0 888.6,70.0 877.3,70.0 869.7,70.0 865.9,70.0 854.5,70.0 846.9,70.0 843.2,70.0 831.8,70.0 790.1,70.0 748.4,70.0 676.4,70.0 540.0,70.0"/>
<polyline fill="none" stroke="#54A24B" stroke-width="2" points="900.0,90.2 900.0,87.8 900.0,85.4 900.0,83.0 900.0,80.5 900.0,78.0 900.0,75.4 900.0,72.7 900.0,70.0 896.2,70.0 892.4,70.0 888.6,70.0 884.8,70.0 881.1,70.0 877.3,70.0 873.5,70.0 869.7,70.0 865.9,70.0 862.1,70.0 858.3,70.0 854.5,70.0 850.7,70.0 846.9,70.0 843.2,70.0 839.4,70.0 835.6,70.0 831.8,70.0 828.0,70.0 824.2,70.0 820.4,70.0 816.6,70.0 812.8,70.0 809.1,70.0 805.3,70.0 801.5,70.0 797.7,70.0 793.9,70.0 790.1,70.0 786.3,70.0 782.5,70.0 778.7,70.0 774.9,70.0 771.2,70.0 767.4,70.0 763.6,70.0 759.8,70.0 756.0,70.0 752.2,70.0 748.4,70.0 744.6,70.0 740.8,70.0 737.1,70.0 733.3,70.0 729.5,70.0 725.7,70.0 721.9,70.0 718.1,70.0 714.3,70.0 710.5,70.0 706.7,70.0 702.9,70.0 699.2,70.0 695.4,70.0 691.6,70.0 687.8,70.0 684.0,70.0 680.2,70.0 676.4,70.0 672.6,70.0 668.8,70.0 665.1,70.0 661.3,70.0 657.5,70.0 653.7,70.0 649.9,70.0 646.1,70.0 642.3,70.0 638.5,70.0 634.7,70.0 630.9,70.0 627.2,70.0 623.4,70.0 619.6,70.0 615.8,70.0 612.0,70.0 608.2,70.0 604.4,70.0 600.6,70.0 596.8,70.0 593.1,70.0 589.3,70.0 585.5,70.0 581.7,70.0 577.9,70.0 574.1,70.0 570.3,70.0 566.5,70.0 562.7,70.0 558.9,70.0 555.2,70.0 551.4,70.0 547.6,70.0 543.8,70.0 540.0,70.0"/>
<text x="720.0" y="370" font-size="12" font-family="Arial" text-anchor="middle" font-weight="normal">Recall</text>
<text x="498" y="200.0" font-size="12" font-family="Arial" text-anchor="middle" font-weight="normal">Precision</text>
<rect x="360" y="385" width="14" height="14" fill="#4C78A8"/>
<text x="380" y="397" font-size="11" font-family="Arial" text-anchor="start" font-weight="normal">logistic_regression</text>
<rect x="540" y="385" width="14" height="14" fill="#F58518"/>
<text x="560" y="397" font-size="11" font-family="Arial" text-anchor="start" font-weight="normal">random_forest</text>
<rect x="720" y="385" width="14" height="14" fill="#54A24B"/>
<text x="740" y="397" font-size="11" font-family="Arial" text-anchor="start" font-weight="normal">linear_svm</text>
</svg>